<svg width="20" height="20" viewBox="0 0 20 20" fill="none" xmlns="http://www.w3.org/2000/svg">
<path d="M15.5007 10.9163V17.333H2.66732V4.49967H7.26898C7.31482 3.84884 7.47065 3.23467 7.70898 2.66634H0.833984V19.1663H17.334V12.7497L15.5007 10.9163ZM14.1257 15.4997H4.04232L6.56315 12.2638L8.35982 14.4272L10.8807 11.1822L14.1257 15.4997ZM16.6923 7.14884C17.0956 6.50717 17.334 5.76467 17.334 4.95801C17.334 2.67551 15.4915 0.833008 13.209 0.833008C10.9265 0.833008 9.08398 2.67551 9.08398 4.95801C9.08398 7.24051 10.9265 9.08301 13.1998 9.08301C14.0065 9.08301 14.7581 8.84467 15.3906 8.44134L18.2507 11.3013L19.5523 9.99967L16.6923 7.14884ZM13.209 7.24967C11.944 7.24967 10.9173 6.22301 10.9173 4.95801C10.9173 3.69301 11.944 2.66634 13.209 2.66634C14.474 2.66634 15.5007 3.69301 15.5007 4.95801C15.5007 6.22301 14.474 7.24967 13.209 7.24967Z" fill="white"/>
</svg>
